<?xml version="1.0" standalone="no"?>
<!DOCTYPE svg PUBLIC "-//W3C//DTD SVG 1.1//EN" "http://www.w3.org/Graphics/SVG/1.1/DTD/svg11.dtd">
<svg xmlns="http://www.w3.org/2000/svg">
<metadata>Copyright (C) 2015 by original authors @ fontello.com</metadata>
<defs>
<font id="icon" horiz-adv-x="1000" >
<font-face font-family="icon" font-weight="400" font-stretch="normal" units-per-em="1000" ascent="850" descent="-150" />
<missing-glyph horiz-adv-x="1000" />
<glyph glyph-name="paperclip" unicode="&#xe800;" d="m358-148c-80 0-159 31-220 93-121 124-121 325 0 449l376 384c89 92 235 92 324 0 43-44 67-103 67-165 0-63-24-121-67-166l-361-368c-57-59-150-59-208 0-57 58-57 154 0 213l315 321 46-47-315-322c-31-32-32-85 0-118 32-33 84-33 116 0l361 369c31 31 48 73 48 118 0 45-17 87-48 118-64 65-168 65-232 0l-376-384c-95-98-95-257 0-355 96-98 252-98 347 0l332 339 47-47-332-340c-61-61-140-92-220-92z" horiz-adv-x="962" />
<glyph glyph-name="chat" unicode="&#xe801;" d="m724-57c-14 0-29 7-42 21l-119 118c-13 13-42 25-60 25h-420c-44 0-81 37-81 81v488c0 45 37 81 81 81h795c45 0 81-36 81-81v-488c0-44-36-81-81-81h-90c-9 0-16-7-16-16v-90c0-40-24-58-48-58z m-641 749c-9 0-16-7-16-16v-488c0-8 7-16 16-16h420c35 0 81-19 106-44l98-97 0 60c0 45 36 81 81 81h90c9 0 17 8 17 16v488c0 9-8 16-17 16h-795z" horiz-adv-x="962" />
<glyph glyph-name="check-box" unicode="&#xe802;" d="m960 717c0 44-35 80-79 80-25 0-47-12-62-30l0 0-101-114h-685c-18 0-32-14-32-31v-688c0-17 14-31 32-31h687c17 0 31 14 31 31v516l187 212 0 0c14 14 22 34 22 55z m-271-751h-625v625h599l-267-301-148 139-109-115 267-253 283 319v-414z" horiz-adv-x="962" />
<glyph glyph-name="doctor-male" unicode="&#xe803;" d="m475 525c20 0 66 58 66 114l-132 0c0-56 46-114 66-114z m-152 22c0-8 7-15 15-15 9 0 16 7 16 15 0 9-7 16-16 16-8 0-15-7-15-16z m260 92l-13 0c0-57-41-127-81-141-1-9-5-21-15-31-13-14-32-21-57-21-36 0-62 19-76 57-1 0-2 0-3 0-24 0-44 20-44 44 0 25 20 44 44 44 25 0 44-19 44-44 0-12-5-24-14-33 12-35 32-39 49-39 17 0 29 4 36 11 4 4 6 9 7 13-40 15-80 84-80 140h-3c-69 0-124-56-124-126v-231c0-58 85-58 85 0v173h20v-546c0-78 113-76 113 0v309h20v-309c0-76 114-78 114 0v546h19v-173c0-59 85-59 85 0v229c0 64-50 128-126 128z m-102 15c54 0 97 44 97 98 0 53-43 97-97 97-54 0-97-44-97-97 0-54 43-98 97-98z" horiz-adv-x="962" />
<glyph glyph-name="doctor-female" unicode="&#xe804;" d="m750 317l-57 224c-11 33-52 92-121 100 0-55-39-122-78-135-1-9-5-20-14-30-12-13-30-20-54-20-35 0-60 18-73 55-1-1-1-1-2-1-24 0-43 19-43 43 0 23 19 42 43 42 23 0 42-19 42-42 0-12-5-23-14-31 12-34 31-38 47-38 15 0 27 4 33 11 4 4 6 8 7 12-38 15-76 80-76 134-70-7-111-66-121-100l-57-224c-20-68 67-94 88-31l48 177h23l-84-341h70v-214c0-78 114-76 114 0v214h19v-214c0-76 115-78 115 0v214h69l-85 341h25l48-176c20-66 107-38 88 30z m-332 324c0 0 0 0 0 0 0-53 44-109 63-109s63 56 63 109c0 0 0 0 0 0h-66-60z m-82-88c0-8 7-14 15-14 7 0 14 6 14 14 0 8-7 14-14 14-8 0-15-6-15-14z m145 101c54 0 98 44 98 98 0 54-44 98-98 98-54 0-98-44-98-98 0-54 44-98 98-98z" horiz-adv-x="962" />
<glyph glyph-name="modern-facilities" unicode="&#xe805;" d="m193 463h-93v93h93v-93z m147 93h-92v-93h92v93z m-147-195h-93v-93h93v93z m147 0h-92v-93h92v93z m0-195h-92v-92h92v92z m580 41l-240 87-240-87v-209h59v136c0 25 21 46 47 46 25 0 46-21 46-46v-136h328v209z m-879-209h59v136c0 25 21 46 47 46 25 0 46-21 46-46v-136h206v223 393l-179 85-179-85v-616z m907 242c8-3 13-11 13-19v-243c0-11-9-20-20-20h-920c-11 0-20 9-20 20v649c0 8 4 15 11 18l200 95c5 3 12 3 17 0l200-95c7-3 11-10 11-18v-377l233 85c5 2 10 2 14 0l261-95m-301-166h92v92h-92v-92z m239 92h-92v-92h92v92z m-242 239c0 0 0-1-1-2 0 0 1-1 1-2l34-34c1 0 2-1 2-1 1 0 2 1 2 1l34 34c1 1 1 2 1 2 0 1 0 2-1 2-10 9-23 13-36 13-13 0-26-4-36-13m-140 137c1-1 3-1 4 0 46 45 107 69 172 69 65 0 126-24 173-69 0-1 1-1 2-1 0 0 1 0 2 1l24 24c0 0 0 1 0 2 0 0 0 1 0 2-54 52-125 81-201 81-75 0-146-29-200-81-1-1-1-2-1-2 0-1 0-2 1-2l24-24z m241-111c1 0 1 0 2 1l24 24c1 1 1 1 1 2 0 1 0 2-1 2-25 23-57 36-91 36-34 0-66-13-90-36-1 0-1-1-1-2 0-1 0-1 0-2l25-24c1-1 2-1 3 0 18 16 40 24 63 24 24 0 46-8 63-24 1-1 1-1 2-1m57 56l24 24c0 0 1 1 1 2 0 1-1 1-1 2-39 38-91 58-146 58-54 0-106-20-145-58-1-1-1-1-1-2 0-1 0-2 1-2l24-24c0-1 1-1 2-1 0 0 1 0 2 1 31 30 73 47 117 47 44 0 86-17 118-47 1-1 3-1 4 0" horiz-adv-x="962" />
<glyph glyph-name="play-video" unicode="&#xe806;" d="m481 98c-139 0-252 113-252 252 0 139 113 252 252 252 139 0 252-113 252-252 0-139-113-252-252-252m-450 598c-17 0-31-14-31-31v-630c0-17 14-31 31-31h900c16 0 30 14 30 31v630c0 17-14 31-30 31h-900z m353-477c0-14 10-19 22-13l227 132c12 6 12 18 0 24l-227 132c-12 6-22 1-22-13v-262z" horiz-adv-x="962" />
<glyph glyph-name="checkmark" unicode="&#xe807;" d="m371-129c-29 0-56 12-74 35l-274 333c-34 41-27 101 14 135 41 33 101 27 135-14l189-231 422 656c29 45 88 58 133 29 45-28 58-87 29-132l-493-767c-17-26-45-43-76-44-1 0-3 0-5 0z" horiz-adv-x="962" />
<glyph glyph-name="plus" unicode="&#xe808;" d="m959 238h-366v-366h-225v366h-365v225h365v365h225v-365h366v-225z" horiz-adv-x="962" />
<glyph glyph-name="medical-savings" unicode="&#xe809;" d="m580 541c-44 17-91 25-139 25-49 0-96-8-139-25l-11 26c47 18 97 27 150 27 52 0 102-9 149-27l-10-26z m11-254c0-5-4-8-8-8h-77v-77c0-4-4-8-8-8h-115c-4 0-8 4-8 8v77h-76c-5 0-8 3-8 8v114c0 5 3 8 8 8h76v77c0 4 4 8 8 8h115c4 0 8-4 8-8v-77h77c4 0 8-3 8-8v-114z m291 124c-4-9-14-18-23-20-8 15-6 31-5 36 1 4 3 7 6 9 2 1 4 2 7 2 3 0 6-1 9-2 4-1 6-3 7-7 2-4 2-11-1-18m59-52c-20-1-36 1-49 5 11 8 20 19 26 32 7 16 7 34 1 49-6 12-16 22-29 27-18 7-35 6-50-2-13-8-22-21-24-37-1-6-3-19 0-34-9 4-16 9-20 12-37 127-182 222-356 222-19 0-38-1-56-4-1 0-2 0-2 0-60 72-143 90-188 85-45-4-28-33-28-33l55-105c1 0 1 0 1 0-60-35-105-84-129-141 0 0-1 0-1 1l-67-12c-13-2-24-15-24-28v-123c0-14 11-26 24-29l79-13c0 0 0 0 1 0 19-34 46-65 80-91 21-15 40-26 47-38 7-13-7-67-10-76-2-7-6-16-3-22 2-6 21-18 68-19 48-1 54 2 64 4 11 3 17 9 19 15l23 56c0 0 0 1 0 1 16-2 31-3 47-3 16 0 32 1 47 2 0 0 0 0 0 0l23-56c2-6 8-12 19-15 10-2 16-5 64-4 47 1 66 13 68 19 3 6-1 15-3 22-3 9-17 63-10 76 7 12 18 15 44 35 0 0 0 0 0 0 0 0 0 0 0 0 70 53 114 126 114 209 0 5 0 10 0 15 9-4 21-8 33-9 21-22 53-32 95-32 3 0 5 0 8 0 10 0 19 9 19 20-1 10-10 19-20 19" horiz-adv-x="962" />
<glyph glyph-name="member-male" unicode="&#xe80a;" d="m960-81l-10 143c-2 28-26 58-54 66l-239 74c-27 8-50 38-50 66v25c17 22 30 50 40 80 5 15 11 31 16 47 17 11 32 31 38 56 6 26 2 51-10 68 1 9 2 19 2 27 0 115-94 208-211 209v1c0 0-1-1-1-1-1 0-1 1-1 1v-1c-117-1-211-94-211-209 0-8 1-18 2-27-12-17-17-42-10-68 6-25 20-45 38-56 5-16 10-32 15-47 11-30 24-57 41-80v-25c0-28-23-58-51-66l-238-74c-28-8-52-38-54-66l-10-143h958l0 0z" horiz-adv-x="962" />
<glyph glyph-name="member-female" unicode="&#xe80b;" d="m949 63c-2 27-26 57-53 66l-215 66c105 22 95 98 95 98-36-10-93 16-82 74 11 58 21 73 21 179 0 129-105 234-234 234-129 0-234-105-234-234 0-107 10-121 21-179 10-58-47-84-82-74 0 0-11-76 94-98l-214-66c-28-9-52-39-54-66l-10-143h957l-10 143z" horiz-adv-x="962" />
<glyph glyph-name="pdf-1" unicode="&#xe80c;" d="m959 538c0 2 0 3 0 4-2 5-4 10-8 14l-264 264c-4 4-9 7-14 8-1 0-3 1-4 1-1 0-3 0-4 0h-429c-17 0-31-13-31-31v-76h-204v-207h204v-613c0-18 14-31 31-31h693c17 0 31 13 31 31v632c0 2 0 3-1 4z m-105 27h-158v159l158-159z m-587-632v582h321v207h-321v45h367v-233c0-17 14-31 31-31h233v-570h-631z m562 173c1 3 4 17 4 17s-4-7-8-9c-16-8-67 5-119 31 45 5 82 5 102-1 26-9 26-17 26-19 0 1 1 7 1 9 0 7-2 13-7 17-10 10-33 14-65 15-24 0-52-2-84-7-14 9-29 18-41 30-30 28-56 68-72 114 2 4 3 8 3 12 5 21 8 87 8 87s-13-50-14-58c-1-5-3-10-5-15-9 35-14 68-14 93 0 7 0 21 2 33 1 7 4 11 7 13 6-1 12-10 19-25 5-14 5-28 5-38 0 0 6 24 5 37-1 8-9 29-25 29h-1 0-7c-12 0-23-6-25-16-11-36 0-94 19-166l-6-14c-14-35-31-70-47-101-64-129-114-198-147-203l-1 1c-1 16 29 57 67 91 5 3 22 20 22 20s-23-13-29-15c-49-30-73-60-77-80-2-7 0-14 5-17l12-6c35-18 76 28 132 128 57 19 128 38 192 47 58-34 125-50 150-43 5 1 10 5 13 9z m-350 0c10 17 21 36 31 57 21 40 34 71 44 100 17-34 40-67 70-93 7-6 13-12 21-17-55-10-112-25-166-47z m348-32c1 1 2 2 2 3 0 2-1 2-1 3-1 1-2 1-4 1h-4v-13h2v5h1c3 0 3 0 3-2 1-1 1-2 2-3h2c-1 1-1 2-1 3-1 2-1 3-2 3z m-3 1h-2v4h2c2 0 3 0 3-2 0-1-1-2-3-2z m0 12c-6 0-12-5-12-12 0-7 6-12 12-12 7 0 12 5 12 12 0 7-5 12-12 12z m0-22c-5 0-9 4-9 10 0 5 4 9 9 9 6 0 9-4 9-9 0-6-3-10-9-10z m-655 562c13 0 29 0 29 18 0 15-14 17-27 17h-16v-35h14z m-36 55h42c25 0 47-9 47-37 0-32-24-38-51-38h-16v-52h-22v127z m146-107c28 0 51 12 51 43 0 31-20 43-47 43h-21v-86h17z m-40 107h50c34 0 65-21 65-64 0-43-37-63-67-63h-48v127z m136 0h82v-21h-59v-33h56v-21h-56v-52h-23v127z" horiz-adv-x="962" />
<glyph glyph-name="stethoscope" unicode="&#xe80d;" d="m426-121c-126 0-213 69-259 205-7-1-14-1-21-1-79 0-144 64-144 143 0 79 65 143 144 143 79 0 143-64 143-143 0-45-21-86-54-112 46-145 131-162 191-162 64 0 111 16 139 47 20 21 28 46 31 65-137 41-286 288-286 491 0 110 36 151 129 199 0 13 8 25 21 31l67 33c10 5 22 5 32 0 10-5 17-14 20-24l17-69c3-11 1-22-6-31-6-9-16-15-27-15l-75-4c-10 0-19 3-26 9-70-38-78-60-78-129 0-199 163-424 251-424 87 0 251 225 251 424 0 69-9 91-79 129-7-6-16-9-25-9l-76 4c-11 1-21 6-27 15-7 9-9 20-6 31l17 69c3 10 10 19 20 24 10 5 22 5 32 0l68-33c12-5 20-18 21-31 92-48 128-89 128-199 0-205-151-454-289-492-3-31-15-75-50-114-43-47-108-70-194-70z m-280 416c-39 0-70-31-70-69 0-38 31-70 70-70 38 0 69 32 69 70 0 38-31 69-69 69z" horiz-adv-x="962" />
<glyph glyph-name="star" unicode="&#xe80e;" d="m959 461c-4 13-16 21-29 21h-321l-100 306c-8 24-49 24-57 0l-99-306h-322c-13 0-24-8-28-21-4-12 0-25 11-33l260-189-99-306c-4-12 0-26 10-34 11-7 25-7 36 0l260 190 260-190c5-3 11-5 18-5 6 0 12 2 17 5 11 8 15 22 11 34l-99 306 260 189c10 8 15 21 11 33z" horiz-adv-x="962" />
<glyph glyph-name="touch" unicode="&#xe80f;" d="m841 380v-231c0-216-134-299-299-299-96 0-180 45-234 115-67 75-183 402-183 402-13 39 6 81 44 94 8 3 15 4 23 4 30 0 59-19 70-49l62-161v530c0 36 29 65 65 65 36 0 65-29 65-65v-279c0 36 29 65 65 65 36 0 65-29 65-65v-46c2 35 30 63 65 63 36 0 65-30 65-65v-54c9 26 33 45 61 45 36 0 66-29 66-65v-4z" horiz-adv-x="962" />
<glyph glyph-name="info" unicode="&#xe810;" d="m373 355h-92v187h307v-504h96v-187h-406v187h95v317z m238 369c0 69-60 125-134 125-74 0-134-56-134-125s60-124 134-124c74 0 134 55 134 124" horiz-adv-x="962" />
<glyph glyph-name="list-view" unicode="&#xe811;" d="m225 728c0 23 19 42 43 42h650c23 0 42-19 42-42 0-23-19-42-42-42h-650c-24 0-43 19-43 42z m693-714h-650c-24 0-43-19-43-43 0-23 19-42 43-42h650c23 0 42 19 42 42 0 24-19 43-42 43z m0 252h-650c-24 0-43-19-43-42 0-24 19-43 43-43h650c23 0 42 19 42 43 0 23-19 42-42 42z m0 252h-650c-24 0-43-19-43-42 0-24 19-43 43-43h650c23 0 42 19 42 43 0 23-19 42-42 42z m-916 150h121v122h-121v-122z m0-253h121v122h-121v-122z m0-252h121v122h-121v-122z m0-253h121v123h-121v-123z" horiz-adv-x="962" />
<glyph glyph-name="globe" unicode="&#xe812;" d="m746 532c-7 65-23 123-47 169 48-31 89-70 122-118 22-32 39-66 51-103-38 19-81 37-126 52m3-59c52-18 99-40 140-62 5-36 6-73 1-110l-150 28c7 49 10 98 9 144m-197 111l31 165c52-26 90-98 105-198-43 12-89 24-136 33m50-496c-50-89-112-142-170-147l31 165c48-8 95-14 139-18m-390 139c-51 18-98 40-139 62-6 37-6 73-2 110l151-28c-7-50-11-98-10-144m4-59c4-38 11-72 21-103 7-24 16-46 26-65-81 51-143 128-173 220 38-19 81-37 126-52m190 588c-39-34-76-83-106-141-48 2-94 1-137-2 62 75 148 125 243 143m270-470c-11-52-27-100-47-146-50 4-102 10-156 19l29 159 174-32z m-187 255l-30-159-174 32c12 52 28 101 48 146 50-4 102-10 156-19m23-169l30 159c54-11 105-24 152-39 3-49 0-101-8-153l-174 33z m-153 240c51 88 112 142 171 147l-31-165c-48 8-95 14-140 18m-278-160c9 36 23 70 41 102 47 6 98 9 153 8-18-43-32-90-43-138l-151 28z m368-124l-29-159c-54 11-105 24-153 39-2 49 1 100 9 153l173-33z m213-243c18-1 33-1 48-1 29 0 59 1 89 3-62-74-147-125-242-143 39 35 75 83 105 141m218 163c-9-36-22-70-41-102-46-6-98-9-152-8 18 43 32 90 43 138l150-28z m-470-132l-31-165c-39 19-70 64-90 130-7 21-12 44-16 69 43-13 89-25 137-34m456 498c-64 93-159 160-268 188-2 0-3 1-5 1l0 0 2 14c3 14-6 28-21 31-2 1-4 1-5 1-13 0-24-10-27-22l-2-14-1 0c-1 0-2 0-3 0l-1 0c-19 3-37 4-55 4-224 0-417-161-458-381-23-123 3-247 74-350 64-93 159-160 268-188 1 0 3-1 4-1l1 0-3-14c-2-14 7-28 22-31 2-1 3-1 5-1 13 0 24 10 26 22l3 13c1 0 2 0 4 0l1 1c19-3 37-4 54-4 225 0 417 161 459 381 22 123-4 247-74 350" horiz-adv-x="962" />
<glyph glyph-name="heart" unicode="&#xe813;" d="m704 785c-96 0-180-54-223-132-43 78-127 132-223 132-141 0-255-114-255-255 0-361 478-615 478-615s478 254 478 615c0 141-114 255-255 255" horiz-adv-x="962" />
<glyph glyph-name="doctor-male-profile" unicode="&#xe814;" d="m950 107c-2 28-26 58-53 66l-153 47c2-10 1-43 0-51 32-34 50-118 26-173-14-34-32-42-62-45-3-4-9-6-14-6l-22-1c0 0-1 0-1 0-6 0-12 2-17 7-4 5-6 12-5 18l3 21c1 7 5 12 11 16 6 3 13 4 19 1l21-7c2-1 4-3 6-4 13 1 15 5 20 17 21 49-13 124-29 131-6 3-27-1-53-16-27-15-54-37-63-58-6-13-7-17 1-27 2 0 5-1 7-2l20-10c6-3 10-8 12-14 1-7 0-14-4-19l-13-17c-4-5-10-8-17-8-7 0-13 2-17 7l-15 17c-3 4-5 9-5 15-18 23-24 42-10 76 23 53 92 102 139 105 0 2-1 4-1 5-2 6-6 39-12 46l-12 3c-27 8-50 38-50 66v25c17 23 30 50 41 81 5 14 9 30 15 47 18 10 32 30 39 56 6 26 1 51-11 67 1 10 2 19 2 27 0 115-94 209-211 210v0c0 0-1 0-1 0 0 0-1 0-2 0v0c-116-1-210-95-210-210 0-8 1-17 2-27-12-16-17-41-11-67 6-26 21-46 39-56 5-17 10-33 15-47 10-31 24-58 40-80v-26c0-28-22-58-50-66l-11-3c-9-24-15-77 8-112 17 3 35 0 50-10 15-9 25-25 29-42 4-18 0-36-9-51-10-15-26-25-43-29-17-4-35-1-50 9-31 21-40 62-20 93 0 0 0 0 0 0-21 31-31 79-29 122l-164-51c-28-8-51-38-54-66l-10-233h959v90l-10 143z m-640-20h0c-6-1-11-5-14-9-6-10-4-24 6-30 5-3 11-4 17-3h0c5 1 10 4 13 9 3 5 4 11 3 16-1 6-4 11-9 14l0 0c-5 3-11 4-16 3z" horiz-adv-x="962" />
<glyph glyph-name="calculator" unicode="&#xe815;" d="m753 568c0-12-10-22-23-22h-498c-13 0-23 10-23 22v138c0 12 10 22 23 22h498c13 0 23-10 23-22v-138z m-81-214c-34 0-62 28-62 62 0 34 28 62 62 62 35 0 62-28 62-62 0-34-27-62-62-62m0-192c-34 0-62 28-62 63 0 34 28 62 62 62 35 0 62-28 62-62 0-35-27-63-62-63m0-191c-34 0-62 28-62 62 0 34 28 62 62 62 35 0 62-28 62-62 0-34-27-62-62-62m-191 383c-34 0-62 28-62 62 0 34 28 62 62 62 34 0 62-28 62-62 0-34-28-62-62-62m0-192c-34 0-62 28-62 63 0 34 28 62 62 62 34 0 62-28 62-62 0-35-28-63-62-63m0-191c-34 0-62 28-62 62 0 34 28 62 62 62 34 0 62-28 62-62 0-34-28-62-62-62m-192 383c-34 0-62 28-62 62 0 34 28 62 62 62 35 0 62-28 62-62 0-34-27-62-62-62m0-192c-34 0-62 28-62 63 0 34 28 62 62 62 35 0 62-28 62-62 0-35-27-63-62-63m0-191c-34 0-62 28-62 62 0 34 28 62 62 62 35 0 62-28 62-62 0-34-27-62-62-62m-184 879v-932c0-38 31-68 68-68h615c38 0 68 30 68 68v932h-751z m602-222c-6 0-11-5-11-11v-30h-47v30c0 6-5 11-11 11-6 0-11-5-11-11v-41c0-6 5-11 11-11h69c6 0 10 5 10 11v41c0 6-4 11-10 11m0 81h-69c-6 0-11-5-11-11v-40c0-6 5-11 11-11 6 0 11 5 11 11v29h47v-29c0-6 5-11 11-11 6 0 10 5 10 11v40c0 6-4 11-10 11" horiz-adv-x="962" />
<glyph glyph-name="doctor-female-profile" unicode="&#xe816;" d="m952 88c-2 28-26 58-54 67l-139 42c2-10 1-42 0-50 32-33 49-114 26-168-14-33-32-41-60-44-4-4-9-6-15-6l-21-1c0 0-1 0-1 0-6 0-12 2-16 7-4 5-6 11-5 18l3 20c1 6 5 12 10 15 6 3 13 4 19 2l20-8c2-1 4-2 6-4 13 2 15 5 20 18 20 47-13 121-29 127-5 3-26 0-51-15-27-16-53-36-62-57-5-13-6-16 1-26 2-1 5-1 7-2l19-10c6-3 10-8 12-14 1-7 0-14-4-19l-12-16c-4-5-10-8-17-8-7 0-13 2-17 8l-14 15c-3 5-5 10-5 15-18 23-24 41-10 74 23 53 90 100 136 103 0 2-1 3-1 5-2 6-6 37-12 44l-4 1c106 22 95 99 95 99-35-10-93 16-82 74 11 59 21 73 21 180 0 130-105 235-235 235-130 0-235-105-235-235 0-107 10-121 21-180 10-58-47-84-83-74 0 0-10-77 95-99l-4-1c-8-23-14-75 9-109 16 3 33 0 48-9 14-10 24-24 28-41 4-18 1-35-9-50-10-15-25-25-41-28-17-4-34-1-50 9-30 19-39 60-19 90 0 0 0 0 0 0-20 31-30 77-28 119l-149-46c-28-9-52-39-54-67l-11-222h963l-10 222z m-660-21h0c-6-1-11-4-14-9-6-9-3-23 7-29 4-3 10-4 15-3h0c6 1 11 5 14 9 3 5 4 11 3 16-2 6-5 10-10 13l0 0c-4 3-10 5-15 3z" horiz-adv-x="962" />
<glyph glyph-name="award" unicode="&#xe817;" d="m915 629c0-128-63-214-188-257 3 7 6 14 10 21 26 66 32 186 32 274v0 39h146v-77z m-868 0v77h146v-39 0c0-88 5-208 32-274 3-7 6-14 10-21-125 43-188 129-188 257m890 122h-168v23c0 10-9 19-20 19h-537c-10 0-19-9-19-19v-23h-169c-12 0-22-10-22-23v-99c0-121 51-260 264-313 76-118 183-187 183-282v-6h-168c-21 0-39-17-39-39v-33c0-14-11-25-25-25v-24h528v24c-14 0-26 11-26 25v33c0 22-17 39-38 39h-169v6c0 95 108 164 184 282 213 53 264 192 264 313v99c0 13-10 23-23 23" horiz-adv-x="962" />
<glyph glyph-name="doc" unicode="&#xe818;" d="m177 653c-3 3-7 5-12 6-4 1-11 1-21 1h-12v-80h20c7 0 12 0 15 1 4 1 8 3 10 5 3 2 5 6 7 12 2 5 3 13 3 22 0 9-1 17-3 22-2 5-4 9-7 11z m150-32c0 13-3 24-10 31-6 6-14 10-25 10-11 0-19-4-26-10-6-7-9-18-9-32 0-14 3-24 10-31 6-7 15-11 25-11 10 0 19 4 25 11 7 7 10 17 10 32z m634-82c0 1 0 3 0 4-2 5-4 10-8 14l-263 265c-4 5-9 7-14 8-2 1-3 1-4 1-2 0-3 1-5 1h-426c-17 0-32-14-32-32v-78h-210v-208h210v-614c0-18 15-32 32-32h689c18 0 32 14 32 32v635c0 1 0 3-1 4z m-751 54c-4-9-8-16-14-21-5-4-11-8-18-10-6-2-13-3-23-3h-48v122h47c10 0 18-1 24-3 7-2 14-5 19-11 5-5 9-12 12-19 3-8 4-18 4-29 0-10-1-19-3-26z m490 129l153-155h-153v155z m-470-103c0 13 2 23 6 31 3 7 7 12 12 17 5 5 10 9 16 11 8 3 17 5 28 5 18 0 33-6 45-17 11-11 17-26 17-46 0-20-6-35-17-46-11-11-26-17-45-17-19 0-34 6-45 17-11 11-17 26-17 45z m668-687h-625v582h316v208h-316v46h363v-233c0-18 14-32 31-32h231v-571z m-494 656c6-6 14-10 23-10 7 0 13 2 18 6 5 5 8 11 10 20l25-8c-4-13-10-23-19-29-9-6-20-10-34-10-17 0-31 6-41 17-11 11-17 26-17 45 0 20 6 36 17 47 11 11 25 17 43 17 15 0 28-5 38-13 6-6 10-13 13-23l-26-5c-1 6-4 11-9 14-5 4-11 6-17 6-10 0-18-3-23-10-6-6-9-17-9-31 0-16 3-26 8-33z" horiz-adv-x="962" />
<glyph glyph-name="attachment" unicode="&#xe819;" d="m847 506c0 1 0 2 0 4-2 5-4 10-8 14l-256 259c-4 4-9 6-14 7-2 1-3 1-4 1-2 0-3 1-4 1h-204c-8 32-38 57-73 57-35 0-65-25-73-57h-66c-18 0-32-14-32-31v-879c0-17 14-31 32-31h672c17 0 31 14 31 31v620c0 1 0 3-1 4z m-255 179l150-152h-150v152z m-308 131c17 0 31-10 38-24h-76c7 14 21 24 38 24z m103-319l-3-1c-1-39-33-71-72-71-38 0-70 32-71 70 0 1 0 1 0 1l1 233h84l-1-204 0 0 0-28 0-1 0-1c0-7-6-12-13-12-7 0-13 5-13 13l1 209v4l-33 0-1-188 0-26c0-25 21-45 46-45 25 0 45 20 46 45h0l0 0h0l1 234h26l-1-232h3z m-75-102v0 0l0 0z m474-481h-610v815h33l-1-232 0-1c1-57 47-104 104-104h0c56 0 101 44 105 99l0 0 1 238h111v-227c0-17 15-31 32-31h225v-557z" horiz-adv-x="962" />
<glyph glyph-name="compose-1" unicode="&#xe81a;" d="m837 433v-507c0-34-28-62-62-62h-712c-34 0-62 28-62 62v702c0 34 28 62 62 62h479l-67-69h-410v-688h708v435l64 65z m-435-339l444 453-175 171-444-453 175-171z m-31-32l-236-66 61 238 175-172z m570 677c26-26 26-68 1-94l-19-19c-25-26-46-48-46-48l-175 172c0 0 21 21 46 47l19 19c25 26 68 27 94 1l80-78z" horiz-adv-x="962" />
<glyph glyph-name="more" unicode="&#xe81b;" d="m119 227c67 0 122 55 122 123 0 68-55 123-122 123-68 0-123-55-123-123 0-68 55-123 123-123l0 0z m362 0c67 0 122 55 122 123 0 68-55 123-122 123-68 0-123-55-123-123 0-68 55-123 123-123l0 0z m362 0c68 0 122 55 122 123 0 68-54 123-122 123-68 0-123-55-123-123 0-68 55-123 123-123l0 0z" horiz-adv-x="962" />
<glyph glyph-name="message" unicode="&#xe81c;" d="m959 67c0 2 0 3 0 4v558c0 1 0 2 0 4-1 2-1 4-2 6 0 2-2 4-3 6 0 1-1 2-2 3 0 1 0 1-1 1-1 2-3 3-5 4-2 1-3 3-4 3-2 1-4 2-6 2-2 1-4 1-6 1-1 0-1 1-2 1h-895c0 0 0-1-1-1-2 0-5 0-7-1-2-1-3-1-4-1-3-1-4-3-6-4-1-1-3-2-4-4-1 0-1 0-1-1-2-1-2-2-3-4-1-1-2-3-2-5-1-2-2-4-2-7 0-1-1-2-1-3v-558c0-1 1-2 1-3 0-3 1-5 2-7 0-2 1-4 2-5 1-2 1-3 3-4 0-1 0-1 1-1 1-2 3-3 4-4 2-1 4-3 5-3 2-1 4-1 5-2 3-1 5-1 7-1 1 0 1-1 1-1h895c5 0 9 1 13 3 1 1 2 1 3 2 2 2 5 3 7 6 1 0 1 0 1 1 1 1 2 2 2 3 1 2 3 4 3 6 1 2 1 4 2 6z m-895 495l255-212-255-212v424z m417-266l-362 302h724l-362-302z m-113 14l93-78c6-5 13-7 20-7 7 0 14 2 20 7l93 78 249-207h-724l249 207z m274 40l255 212v-424l-255 212z" horiz-adv-x="962" />
<glyph glyph-name="preferences" unicode="&#xe81d;" d="m810-38c25 15 45 36 59 61l75-5 15 89-73 19c-5 30-19 58-40 80l28 70-79 42-41-63c-31 4-61-1-88-14l-58 49-64-63 47-58c-5-9-8-18-11-28-6-21-7-41-4-61l-64-40 40-80 70 27c14-14 31-26 50-33 6-3 12-5 18-7 4-1 8-1 12-2l18-73 89 13-4 75c2 1 3 2 5 2l0 0z m-156 159c12 42 56 67 99 56 3-1 6-2 9-3 38-16 58-56 47-96-6-20-19-38-38-48-18-11-40-13-60-8-44 12-68 56-57 99l0 0z m-119 230l89-26 39 94-83 44c4 25 4 50 0 75l82 45-40 94-89-27c-15 20-33 38-54 53l27 89-95 39-44-83c-25 4-50 4-75 0l-44 82-95-40 28-89c-21-15-38-33-53-53l-90 26-39-95 83-43c-4-25-4-51 0-76l-82-44 40-95 89 28c15-20 33-38 54-53l-27-90 95-38 44 82c25-4 50-3 75 1l45-82 94 39-27 89c20 15 38 34 53 54l0 0z m-257 19c-34 14-61 41-76 75-14 34-14 73 0 107 14 35 41 62 75 76 34 15 72 15 107 1 34-14 62-41 76-76 15-34 15-72 1-106-15-35-41-62-76-76-34-15-72-15-107-1l0 0z" horiz-adv-x="962" />
<glyph glyph-name="questions" unicode="&#xe81e;" d="m352 218c0 56 14 93 49 126 104 100 180 147 180 212 0 61-43 98-101 98-87 0-134-56-139-125l-217 14c20 198 156 305 352 305 171 0 316-95 316-277 0-107-40-172-174-277-44-34-55-66-55-97v-41h-211v62l0 0z m105-108c72 0 130-58 130-130 0-72-58-129-130-129-71 0-129 57-129 129 0 72 58 130 129 130l0 0z" horiz-adv-x="962" />
<glyph glyph-name="print" unicode="&#xe81f;" d="m930 575h-176v224c0 17-14 31-31 31h-484c-17 0-31-14-31-31v-224h-176c-17 0-31-13-31-30v-390c0-16 14-30 31-30h176v-224c0-17 14-31 31-31h484c17 0 31 14 31 31v224h176c17 0 31 14 31 30v390c0 17-14 30-31 30z m-661 194h423v-328h-423v328z m-162-323c-22 0-39 17-39 39 0 21 17 39 39 39 21 0 39-18 39-39 0-22-18-39-39-39z m585-515h-423v328h423v-328z m-363 250h303c7 0 13 6 13 13 0 7-6 12-13 12h-303c-6 0-12-5-12-12 0-7 6-13 12-13z m0-68h303c7 0 13 6 13 13 0 7-6 12-13 12h-303c-6 0-12-5-12-12 0-7 6-13 12-13z m0-135h303c7 0 13 6 13 13 0 7-6 12-13 12h-303c-6 0-12-5-12-12 0-7 6-13 12-13z m0 68h303c7 0 13 5 13 12 0 7-6 13-13 13h-303c-6 0-12-6-12-13 0-7 6-12 12-12z" horiz-adv-x="962" />
<glyph glyph-name="secured" unicode="&#xe820;" d="m756 406h-15v196c0 137-111 247-248 247h-25c-136 0-247-110-247-247v-196h-15c-35 0-64-29-64-65v-426c0-35 29-64 64-64h550c35 0 64 29 64 64v426c0 36-29 65-64 65z m-446 196c0 87 71 158 158 158h25c88 0 158-71 158-158v-196h-341v196z m86-610l45 128c-26 14-44 42-44 74 0 47 37 84 84 84 46 0 84-37 84-84 0-32-18-60-44-74l45-128h-170z" horiz-adv-x="962" />
<glyph glyph-name="rx" unicode="&#xe821;" d="m704 131l171 244h-181l-89-142-128 176c107 20 163 103 163 209 0 178-132 232-288 232h-297v-765h169v306h77l194-260-207-281h189l123 175 115-175h191l-202 281z m-480 576h110c62 0 131-11 131-88 0-83-80-86-142-86h-99v174z" horiz-adv-x="962" />
<glyph glyph-name="time" unicode="&#xe822;" d="m733-150h-505c-18 0-33 15-33 33v223c0 127 71 204 140 244-69 40-140 117-140 244v223c0 18 15 33 33 33h505c18 0 33-15 33-33v-223c0-127-71-204-139-244 68-40 139-117 139-244v-223c0-18-15-33-33-33z m-471 66h438v190c0 173-160 210-167 212-15 3-26 16-26 32 0 16 11 29 26 32 7 2 167 40 167 212v190h-438v-190c0-173 160-210 167-212 15-3 26-16 26-32 0-16-11-29-26-32-7-2-167-40-167-212v-190z m219 338c0 0-171-131-171-187v-102h341 0v102c0 56-170 187-170 187m-152 261c26-53 84-89 152-89 68 0 126 36 152 89h-304z" horiz-adv-x="962" />
<glyph glyph-name="graph" unicode="&#xe823;" d="m280-89v852c0 14-12 26-26 26h-227c-14 0-25-12-25-26v-852h278z m340 0v400c0 15-12 26-26 26h-226c-15 0-26-11-26-26v-400h278z m340 0v626c0 15-12 26-26 26h-226c-14 0-26-11-26-26v-626h278z" horiz-adv-x="962" />
<glyph glyph-name="arrow" unicode="&#xe824;" d="m489 821c-8-3-13-11-13-19v-225h-447c-11 0-21-9-21-21v-412c0-12 10-21 21-21h447v-225c0-8 5-16 13-19 7-3 16-1 22 5l436 452c4 4 6 9 6 14 0 5-2 10-6 15l-436 451c-6 6-15 8-22 5l0 0z" horiz-adv-x="962" />
<glyph glyph-name="specialty-care" unicode="&#xe825;" d="m950 540l-2 2c-11 17-29 26-48 26-12 0-23-3-33-9l-250-167-4 4c-34 31-76 52-121 61-17 3-34 5-50 5-50 0-99-15-141-43-56-37-95-95-108-161-13-67 0-135 38-191 37-57 95-95 161-108 66-14 135 0 191 37 93 63 134 181 100 289l-2 5 253 169c26 18 34 54 16 81z m-395-502c-34-22-73-34-113-34-13 0-27 2-40 4-53 11-99 42-129 87-31 45-41 99-31 153 11 53 42 99 87 129 45 30 100 41 153 31 53-11 99-42 129-87 63-94 37-220-56-283z m48-48h84v106c-18-41-47-78-84-106z m-386 68c-40 60-54 132-40 203 13 64 48 120 99 160l-87 0c-104 0-187-84-187-190v-241h279c-24 19-46 41-64 68z m129 396c80 0 146 65 146 146 0 81-66 146-146 146-81 0-147-65-147-146 0-81 66-146 147-146z m133-62c-12 2-25 3-37 3-37 0-73-11-104-31-42-28-70-70-80-120-9-49 0-99 28-140 28-42 70-70 119-80 49-9 100 0 141 28 86 57 109 174 52 260-28 41-70 70-119 80z m-36-310c0 0-127 67-127 163 0 38 30 68 67 68 26 0 48-14 60-35 11 21 34 35 59 35 38 0 68-30 68-68 0-96-127-163-127-163z" horiz-adv-x="962" />
<glyph glyph-name="member-card" unicode="&#xe826;" d="m962 589v-478c0-30-24-53-53-53h-856c-29 0-53 23-53 53v479c0 29 24 52 53 52h856c29 0 53-23 53-53z m-852-285l79 24c10 3 17 13 17 22v9c-6 7-10 16-13 26-2 5-4 11-5 16-6 3-11 10-13 19-2 8-1 17 3 22 0 3 0 7 0 9 0 39 31 70 70 70 0 0 0 0 0 0 0 0 1 0 1 0 39 0 70-31 70-70 0-2 0-6-1-9 4-5 6-14 4-22-2-9-7-16-13-19-2-5-4-11-5-16-4-10-8-19-14-26v-9c0-9 8-19 17-22l80-24c7-3 13-10 16-18v246c0 6-5 11-11 11h-288c-5 0-10-5-10-11v-246c2 8 8 15 16 18z m405 147h333c14 0 25 11 25 25 0 15-11 26-25 26h-333c-14 0-25-11-25-26 0-14 11-25 25-25z m0-123h333c14 0 25 11 25 25 0 15-11 26-25 26h-333c-14 0-25-11-25-26 0-14 11-25 25-25z m358-146c0 14-11 26-25 26h-734c-14 0-26-12-26-26 0-14 12-26 26-26h734c14 0 25 12 25 26z" horiz-adv-x="962" />
<glyph glyph-name="locations" unicode="&#xe827;" d="m481 447c-66 0-120 53-120 119 0 66 54 120 120 120 66 0 119-54 119-120 0-66-53-119-119-119l0 0z m283 119c0 157-127 284-283 284-157 0-283-127-283-284 0-41 8-79 24-114l242-590c3-7 10-12 17-12 7 0 13 5 16 12l243 590c15 35 24 73 24 114l0 0z" horiz-adv-x="962" />
<glyph glyph-name="medical-record" unicode="&#xe828;" d="m961 625v-614c0-29-24-53-53-53h-854c-29 0-53 24-53 53v614c0 0 0 0 0 0v65c0 28 23 52 52 52h247c28 0 51-24 51-52v-12h557c29 0 53-24 53-53z m-284-223h-112v112h-168v-112h-112v-167h112v-113h168v113h112v167z" horiz-adv-x="962" />
<glyph glyph-name="home" unicode="&#xe829;" d="m956 337l-166 130v236c0 9-7 16-16 16h-140c-9 0-17-7-17-16v-100l-126 99c-6 5-14 5-20 0l-465-365c-5-4-8-11-5-18 2-6 8-11 15-11h155v-311c0-9 7-16 16-16h186c9 0 16 7 16 16v203c0 43 35 77 77 77h29c43 0 77-34 77-77v-203c0-9 8-16 17-16h186c8 0 16 7 16 16v311h155c7 0 13 5 15 11 2 7 0 14-5 18z" horiz-adv-x="962" />
<glyph glyph-name="find" unicode="&#xe82a;" d="m2 477c0-94 36-181 102-247 66-66 153-102 247-102 64 0 125 17 179 49l276-276c35-35 91-35 125 0l3 2c34 35 34 91 0 126l-280 279c74 133 55 303-57 415-66 66-153 102-247 102-93 0-180-36-246-102-66-66-102-153-102-246z m89 0c0 69 27 134 76 183 49 49 114 76 183 76 70 0 135-27 184-76 102-101 102-266 0-367-49-49-114-76-183-76-70 0-135 27-184 76-49 49-76 114-76 184z" horiz-adv-x="962" />
<glyph glyph-name="forms" unicode="&#xe82b;" d="m723 826h-691c-17 0-31-14-31-31v-895c0-17 14-31 31-31h691c17 0 31 14 31 31v895c0 17-14 31-31 31z m-31-895h-629v833h629v-833z m269 767v-351c0-13-10-24-24-25v-279c0-2 0-3 0-5l-32-143c-3-11-12-19-23-19-12 0-21 8-24 19l-32 143c0 2 0 3 0 5v684c0 13 10 24 24 24h4v64c0 8 6 15 15 15h25c9 0 15-7 15-15v-64h4c14 0 24-11 24-24v-4c14 0 24-11 24-25z m-833-59c0 14 11 25 25 25h449c14 0 25-11 25-25 0-15-11-26-25-26h-449c-14 0-25 11-25 26z m0-291c0 14 11 25 25 25h449c14 0 25-11 25-25 0-15-11-26-25-26h-449c-14 0-25 11-25 26z m0 145c0 14 11 26 25 26h449c14 0 25-12 25-26 0-14-11-25-25-25h-449c-14 0-25 11-25 25z m0-436c0 14 11 25 25 25h449c14 0 25-11 25-25 0-14-11-26-25-26h-449c-14 0-25 12-25 26z m0 145c0 14 11 26 25 26h449c14 0 25-12 25-26 0-14-11-25-25-25h-449c-14 0-25 11-25 25z" horiz-adv-x="962" />
<glyph glyph-name="email" unicode="&#xe82c;" d="m345 325c0-27 0-119 107-119 99 0 126 86 126 157 0 69-31 119-96 119-87 0-137-71-137-157m560-262c-92-127-240-196-398-196-277 0-504 200-504 482 0 276 222 484 496 484 229 0 460-152 460-427 0-277-211-317-289-317-72 0-101 36-102 70h-3c-33-35-84-70-166-70-112 0-187 90-187 218 0 152 99 292 260 292 69 0 114-20 140-74h3l10 59h122l-48-256c-5-25-12-48-12-74 0-31 8-48 35-48 55 0 112 58 112 193 0 208-142 317-339 317-215 0-360-154-360-367 0-227 163-365 382-365 98 0 182 29 246 79h142z" horiz-adv-x="962" />
<glyph glyph-name="copay" unicode="&#xe82d;" d="m662 407v23c25 1 56 22 56 51 0 33-30 43-56 45v34c10 0 18-10 19-20h33c0 33-31 51-52 52v22h-32v-22c-10 0-52-12-52-49 0-32 30-41 52-44v-37c-16 4-19 15-21 25h-34c2-37 36-54 55-57v-23h32z m0 86c28 0 32-27 0-32l0 32z m-32 67v-28c-23 0-24 24 0 28z m-62-315v0h341c28 0 50 22 50 49 0 27-22 48-50 48l-168 0c13 7 24 15 34 23h62c28 0 50 22 50 49 0 26-22 48-50 48h-1c4 14 6 29 6 44 0 104-88 188-196 188-79 0-148-46-178-112l-172 0v0c-162-3-293-131-293-288 0-159 134-288 299-288h147v0h302c28 0 51 21 51 48 0 27-23 48-51 48l-183 0v1c-6 0-12 5-12 11 0 7 6 12 12 12 0 0 1 0 1 0h290c28 0 50 21 50 48 0 27-22 48-50 48l-289 1c-1-1-1-1-2-1-6 0-12 6-12 12 0 6 6 11 12 11z m-266 217c-7 0-12 6-12 12 0 6 5 11 12 11v1h150c1-8 3-16 5-24h-155z m216 44c0 67 58 121 128 121 71 0 129-54 129-121 0-66-58-120-129-120-70 0-128 54-128 120z" horiz-adv-x="962" />
<glyph glyph-name="date" unicode="&#xe82e;" d="m904 700h-141v33c0 53-43 96-96 96-53 0-95-43-95-96v-33h-182v33c0 53-43 96-95 96-53 0-96-43-96-96v-33h-141c-31 0-56-25-56-56v-717c0-31 25-56 56-56h846c31 0 56 25 56 56v717c0 31-25 56-56 56z m-271 33c0 20 15 35 34 35s35-15 35-35v-127c0-19-16-35-35-35s-34 16-34 35v127z m-373 0c0 20 15 35 35 35 19 0 34-15 34-35v-127c0-19-15-35-34-35-20 0-35 16-35 35v127z m639-801h-836v564h836v-564z m-443 90h-258v69l150 144c18 18 40 39 40 66 0 31-26 50-56 50-32 0-55-20-60-52l-68 5c6 72 58 109 128 109 69 0 124-35 124-109 0-48-25-82-59-113l-119-111h178v-58z m33 124c0 41 15 72 36 106l98 155h80l-93-143 2-1c7 5 22 7 35 7 68 0 116-56 116-123 0-80-58-132-137-132-80 0-137 50-137 131z m69 1c0-38 31-70 70-70 38 0 70 32 70 70 0 39-32 70-70 70-39 0-70-31-70-70z" horiz-adv-x="962" />
<glyph glyph-name="document" unicode="&#xe82f;" d="m872 547c0 1-1 2-1 4-1 5-4 11-8 15l-273 276c-4 4-10 6-16 8-1 0-2 1-4 1-1 0-3 1-4 1h-444c-18 0-33-15-33-34v-936c0-19 15-34 33-34h717c19 0 34 15 34 34v660c0 2-1 3-1 5z m-273 190l161-161h-161v161z m207-822h-651v870h378v-243c0-18 15-33 33-33h240v-594z m-567 715h221c15 0 28 12 28 27 0 16-13 28-28 28h-221c-15 0-27-12-27-28 0-15 12-27 27-27z m0-154h221c15 0 28 13 28 28 0 15-13 27-28 27h-221c-15 0-27-12-27-27 0-15 12-28 27-28z m-27-126c0-15 12-27 27-27h483c15 0 28 12 28 27 0 15-13 27-28 27h-483c-15 0-27-12-27-27z m510-280h-483c-15 0-27-12-27-27 0-15 12-28 27-28h483c15 0 28 13 28 28 0 15-13 27-28 27z m0 154h-483c-15 0-27-13-27-28 0-15 12-27 27-27h483c15 0 28 12 28 27 0 15-13 28-28 28z" horiz-adv-x="962" />
<glyph glyph-name="call" unicode="&#xe830;" d="m883 68c-25 32-64 69-102 99-33 26-58 44-81 55-21 11-41 9-67-11-32-25-51-41-60-57-5-4-13-9-20-13-1 0-12 1-37 31-26 31-67 82-99 125-31 42-69 97-91 131-21 33-19 44-16 47 4 4 10 9 16 13 17 4 39 18 75 43 21 15 30 35 26 58-4 26-14 55-29 94-17 45-42 92-65 127-12 17-32 41-60 41-6 0-10-1-11-2-12-1-33-6-58-15-31-10-45-26-56-39l-5-6c-15-16-49-66-69-99-25-41-22-63-15-96 7-35 66-216 209-408 143-192 299-301 331-319 18-9 34-18 58-18 11 0 22 2 37 6 38 9 95 28 115 37l6 3c16 8 36 16 55 42 15 22 27 41 30 50 14 25 8 50-17 81z" horiz-adv-x="962" />
<glyph glyph-name="dollar" unicode="&#xe831;" d="m574-150v108c124 7 270 109 270 250 0 160-146 206-270 218v165c49-4 87-50 91-98h163c0 160-152 244-256 250v108h-155v-108c-45 0-250-56-250-235 0-158 148-202 250-216v-179c-75 21-88 75-98 121h-165c10-178 174-262 263-274v-110h157z m1 417c137-4 152-134 0-155l0 155z m-157 322v-136c-110 1-112 117 0 136z" horiz-adv-x="962" />
<glyph glyph-name="arrow-down" unicode="&#xe832;" d="m1 549l65 69 416-404 413 404 65-69-477-467-482 467z" horiz-adv-x="962" />
<glyph glyph-name="arrow-up" unicode="&#xe833;" d="m960 151l-65-69-416 404-412-404-66 69 478 467 481-467z" horiz-adv-x="962" />
<glyph glyph-name="pdf" unicode="&#xe834;" d="m959 538c-1 1-1 2-1 4-2 5-4 10-8 14l-263 264c-4 3-9 6-15 7-1 0-2 1-3 1-2 0-3 1-4 1h-428c-17 0-31-14-31-31v-77h-204v-206h204v-613c0-17 14-31 31-31h691c18 0 31 14 31 31v632c0 1 0 3 0 4z m-105 27h-158v158l158-158z m-586-632v582h320v206h-320v46h366v-233c0-17 14-31 31-31h232v-570h-629z m561 173c1 4 4 17 4 17s-4-7-9-9c-16-8-66 5-119 32 45 4 82 5 103-2 25-9 25-17 25-19 0 2 2 8 1 10 0 6-2 12-6 17-10 9-33 13-66 14-23 0-52-2-83-6-14 8-30 17-41 29-31 28-56 69-72 114 2 4 3 8 3 12 5 21 8 87 8 87s-13-50-14-58c-2-5-3-10-5-15-10 35-15 68-15 93 0 7 1 21 3 32 1 8 4 12 7 14 6-1 12-10 18-25 6-14 6-28 6-38 0 0 6 24 4 37 0 8-8 29-24 29h-1 0-8c-11 0-22-6-25-16-10-37 1-94 20-166l-6-14c-14-35-31-70-47-101-64-129-114-197-147-203l-1 2c0 16 29 57 68 90 4 4 21 20 21 20s-23-12-29-15c-48-30-73-60-77-80-1-6 0-13 5-17l12-5c35-18 76 28 132 128 57 19 127 37 192 47 58-34 124-50 150-44 4 2 10 6 13 9z m-350 0c10 18 21 37 31 57 20 40 33 71 44 100 17-34 40-67 70-92 7-6 13-12 21-17-55-11-112-25-166-48z m347-31c2 0 3 1 3 3 0 1-1 2-2 3-1 0-1 0-4 0h-4v-12h2v5h2c2 0 3-1 3-2 0-2 0-2 1-3h2c0 1 0 1 0 3-1 1-2 3-3 3z m-3 0h-2v5h2c3 0 3-1 3-2 0-2-1-3-3-3z m0 12c-6 0-11-5-11-12 0-6 5-11 11-11 7 0 13 5 13 11 0 7-6 12-13 12z m0-21c-5 0-8 4-8 9 0 6 3 10 8 10 6 0 10-4 10-10 0-5-4-9-10-9z m-654 560c13 0 30 1 30 18 0 16-15 18-27 18h-16v-36h13z m-36 55h43c24 0 46-9 46-37 0-32-23-37-50-37h-16v-53h-23v127z m146-106c28 0 52 12 52 43 0 31-20 43-48 43h-21v-86h17z m-39 106h50c33 0 64-20 64-63 0-44-36-64-67-64h-47v127z m135 0h82v-20h-59v-34h56v-20h-56v-53h-23v127z" horiz-adv-x="962" />
<glyph glyph-name="png" unicode="&#xe835;" d="m163 658c-3 0-10 1-19 1h-12v-35h14c10 0 17 1 20 2 3 1 6 3 8 6 2 3 3 6 3 9 0 5-1 8-4 11-3 3-6 5-10 6z m796-120c-1 1-1 2-1 4-2 5-4 10-8 14l-261 264c-4 4-9 6-14 8-2 0-3 0-4 0-2 1-3 1-5 1h-424c-17 0-31-14-31-32v-77h-209v-206h209v-611c0-18 14-32 31-32h686c17 0 32 14 32 32v631c0 1-1 3-1 4z m-760 85c-3-5-6-9-11-12-4-3-8-5-13-6-6-1-15-1-26-1h-17v-46h-26v121h41c16 0 26-1 31-2 7-2 13-6 18-12 5-6 7-14 7-23 0-8-1-14-4-19z m499 97l153-154h-153v154z m-450-162h-23v121h25l51-81v81h24v-121h-26l-51 79v-79z m648-624h-622v580h315v206h-315v46h361v-232c0-18 14-32 31-32h230v-568z m-512 654c7-7 16-11 26-11 6 0 11 1 17 3 5 2 10 4 13 7v16h-29v20h55v-48c-5-5-13-9-23-13-10-4-20-6-31-6-13 0-25 3-35 8-9 5-17 13-22 23-5 10-7 20-7 32 0 13 3 24 8 34 6 9 14 17 24 22 9 4 19 6 31 6 15 0 28-3 37-9 8-7 14-15 17-26l-26-5c-2 6-5 11-10 14-5 3-11 5-18 5-11 0-20-3-27-10-7-7-10-17-10-30 0-14 4-25 10-32z" horiz-adv-x="962" />
<glyph glyph-name="jpg" unicode="&#xe836;" d="m957 537c0 2 0 3-1 4-1 5-3 11-7 15l-261 262c-4 4-9 7-14 8-1 1-3 1-4 1-1 0-3 1-4 1h-423c-17 0-32-14-32-32v-77h-207v-206h207v-609c0-18 15-32 32-32h683c18 0 32 14 32 32v629c0 2-1 3-1 4z m-259 182l152-154h-152v154z m-517-117c0-10-1-18-3-23-2-7-7-13-13-17-7-4-15-6-26-6-12 0-22 3-29 10-6 6-10 16-10 29l24 2c0-6 1-11 3-14 3-5 7-7 13-7 6 0 10 2 12 5 2 3 4 9 4 19v78h25v-76z m53 1v-45h-26v120h41c16 0 26-1 30-2 8-2 14-6 19-12 4-6 7-14 7-23 0-7-2-14-4-19-3-5-7-9-11-12-4-2-9-4-13-5-6-1-15-2-27-2h-16z m661-667h-620v577h313v206h-313v45h359v-231c0-17 14-31 32-31h229v-566z m-537 651c6-7 15-11 26-11 5 0 11 1 16 3 5 2 10 5 14 8v15h-29v20h55v-48c-6-5-14-9-24-13-10-4-20-5-30-5-14 0-25 2-35 7-10 6-17 13-22 23-5 10-8 21-8 32 0 13 3 24 9 34 5 9 13 17 24 22 8 4 18 6 30 6 16 0 28-3 37-9 9-7 14-15 17-26l-25-5c-2 6-6 11-10 14-5 3-12 5-19 5-11 0-20-3-26-10-7-7-10-17-10-30 0-14 3-25 10-32z m-83 64c-3 3-7 5-11 6-3 0-9 1-18 1h-12v-35h14c10 0 16 1 20 2 3 2 6 4 8 6 2 3 3 6 3 10 0 4-2 8-4 10z" horiz-adv-x="962" />
<glyph glyph-name="gif" unicode="&#xe837;" d="m958 538c0 1 0 2-1 4-1 5-3 10-7 14l-261 263c-4 4-9 7-15 8-1 0-2 1-4 1-1 0-2 1-4 1h-423c-18 0-32-15-32-32v-77h-208v-207h208v-610c0-17 14-32 32-32h684c18 0 32 15 32 32v631c0 1-1 2-1 4z m-260 182l153-155h-153v155z m-435-145c-5-5-13-10-23-13-10-4-21-6-31-6-13 0-25 3-35 8-9 5-17 13-22 23-5 9-7 20-7 32 0 12 2 23 8 33 6 10 14 17 24 23 8 4 18 6 31 6 15 0 28-4 36-10 9-6 15-15 17-26l-25-4c-2 6-5 10-10 14-5 3-11 5-18 5-12 0-20-4-27-10-7-7-10-17-10-30 0-15 3-25 10-33 7-7 15-10 26-10 6 0 11 1 16 3 6 2 10 4 14 7v15h-29v21h55v-48z m632-640h-621v578h314v207h-314v45h360v-231c0-18 15-32 32-32h229v-567z m-609 623v121h25v-121h-25z m128 72v-21h-53v-51h-25v121h87v-21h-62v-28h53z" horiz-adv-x="962" />
<glyph glyph-name="bmp" unicode="&#xe838;" d="m445 627c4 1 6 3 8 6 2 2 3 5 3 9 0 4-1 8-4 11-3 3-6 5-10 5-3 1-9 1-19 1h-12v-34h14c10 0 17 0 20 2z m-274 5c4 0 8 2 10 4 3 3 4 6 4 10 0 3-1 6-3 9-3 2-6 3-10 4-3 0-10 0-22 0h-15v-28h17c10 0 16 1 19 1z m788-94c0 2 0 3 0 4-2 5-4 11-8 15l-262 264c-4 4-9 6-14 7-1 1-3 1-4 1-1 0-3 1-4 1h-425c-17 0-32-14-32-32v-77h-209v-207h209v-612c0-18 15-32 32-32h686c18 0 32 14 32 32v632c0 2 0 3-1 4z m-747 40c-3-6-6-10-11-13-5-3-10-5-17-6-5 0-15 0-31 0h-43v121h50c10 0 18-1 23-2 5 0 9-2 13-5 4-2 7-6 10-10 2-4 4-9 4-14 0-6-2-11-5-16-3-4-8-8-13-10 8-2 14-6 18-11 4-5 6-11 6-18 0-6-1-11-4-16z m487 143l153-155h-153v155z m-438-162h-24v121h39l23-83 22 83h39v-121h-24v95l-25-95h-25l-25 95v-95z m636-625h-623v580h315v207h-315v45h361v-232c0-17 14-32 32-32h230v-568z m-512 625v121h42c15 0 25-1 30-2 7-2 13-6 18-12 5-6 8-14 8-24 0-7-2-13-5-18-2-5-6-9-10-12-5-3-9-5-14-6-6-1-15-2-26-2h-17v-45h-26z m-206 51c-4 1-11 1-23 1h-21v-32h24c9 0 15 0 18 1 3 0 7 2 9 5 2 2 3 6 3 10 0 3 0 7-2 9-2 3-5 4-8 6z" horiz-adv-x="962" />
<glyph glyph-name="circle-checkmark" unicode="&#xe839;" d="m481 829c-265 0-479-214-479-479 0-265 214-479 479-479s479 214 479 479c0 265-215 479-479 479z m203-334l-216-335c-7-11-19-19-33-19-1 0-1 0-2 0-13 0-25 5-33 15l-119 146c-15 17-12 44 6 58 18 15 44 12 59-5l83-101 184 286c12 20 38 25 58 13 19-13 25-38 13-58z" horiz-adv-x="962" />
<glyph glyph-name="circle-plus" unicode="&#xe83a;" d="m481 829c-265 0-479-214-479-479 0-265 214-479 479-479s479 214 479 479c0 265-215 479-479 479z m212-529h-162v-162h-100v162h-163v100h163v163h100v-163h162v-100z" horiz-adv-x="962" />
<glyph glyph-name="web-camera" unicode="&#xe83b;" d="m742 537v-374c0-49-46-88-102-88h-538c-56 0-102 39-102 88v374c0 49 46 89 102 89h538c56 0 102-40 102-89z m13-250l207-145v414l-207-145v-124z" horiz-adv-x="962" />
<glyph glyph-name="pencil" unicode="&#xe83c;" d="m652-20l-517 516 200 199 516-516-199-199z m36-36l272-73-73 272-199-199z m-664 772c-30-30-30-79 0-109l21-21c30-30 55-54 55-54l199 199c0 0-25 25-54 55l-22 21c-29 30-78 30-108 0l-91-91z" horiz-adv-x="962" />
<glyph glyph-name="trashcan" unicode="&#xe83d;" d="m149-150l662 0v745h-660l-2-745z m66 681h532v-617h-532v617z m468 234v85h-404v-85h-149v-85h702v85h-149z m-43 0h-319v42h319v-42z m-42-766h64v468h-64v-468z m-149 0h64v468h-64v-468z m-149 0h64v468h-64v-468z" horiz-adv-x="962" />
<glyph glyph-name=" down-arrow" unicode="&#xe83e;" d="m661 278l282 295c-16-25-371-510-382-523-39-48-82-114-172 0-117 146-363 503-373 523-28 54-9 140 91 140 119 0 744 0 744 0 103 0 127-84 92-140z" horiz-adv-x="962" />
<glyph glyph-name="none-available" unicode="&#xe83f;" d="m481 829c-265 0-479-214-479-479 0-265 214-479 479-479s479 214 479 479c0 265-215 479-479 479z m-377-479c0 208 169 376 377 376 62 0 120-14 172-41l-450-589c-61 67-99 156-99 254z m377-376c-69 0-133 18-188 50l453 594c69-69 111-163 111-268 0-208-168-376-376-376z" horiz-adv-x="962" />
<glyph glyph-name="circle-x" unicode="&#xe840;" d="m481 829c-265 0-479-214-479-479 0-265 214-479 479-479s479 214 479 479c0 265-215 479-479 479z m215-624l-71-70-144 145-145-145-70 70 145 145-145 145 70 70 145-145 144 145 71-70-145-145 145-145z" horiz-adv-x="962" />
<glyph glyph-name="refresh" unicode="&#xe841;" d="m804 210c-35-143-165-251-319-251-182 0-330 148-330 330 0 182 148 329 330 329v1h1v-172l331 199-331 199v-123h-1v1c-2 0-3-1-4-1h-5v0c-235-4-425-197-425-433 0-239 195-434 434-434 212 0 388 154 426 355h-107z" horiz-adv-x="962" />
<glyph glyph-name="alarm" unicode="&#xe842;" d="m537 333c-5 9-13 16-22 21l-9 240h-50l-10-243c-17-12-28-31-28-53 0-36 29-65 65-65 24 0 45 13 56 33l195 9v49l-197 9z m224 296l12 17 124-87c57 82 34 198-52 258-85 59-202 41-259-41l124-87-11-16c-64 37-139 59-218 59-80 0-154-22-218-59l-12 16 125 87c-58 82-174 100-260 41-85-60-109-176-51-258l124 87 12-17c-93-80-153-198-153-330 0-125 54-238 140-317l-37-57c-16-24-10-55 12-69 22-15 53-8 68 16l35 52c63-36 136-57 215-57 78 0 152 21 215 57l34-52c16-24 46-31 69-16 22 14 27 45 12 69l-37 57c85 79 139 192 139 317 0 132-59 250-152 330z m-280-652c-178 0-322 145-322 322 0 178 144 323 322 323 178 0 322-145 322-323 0-177-144-322-322-322z" horiz-adv-x="962" />
<glyph glyph-name="up-arrow" unicode="&#xe843;" d="m661 278l-642-151c16 25 371 510 382 523 38 48 81 114 172 0 117-146 363-502 373-523 28-54 9-140-92-140-118 0-743 0-743 0-103 0-127 84-92 140z" horiz-adv-x="962" />
<glyph glyph-name="shoppingcart" unicode="&#xe844;" d="m871 121l89 438-755 86-33 172-160 13-11-125 65-5 112-579h77l8-47c-41-14-63-50-63-96 0-1 0-1 0-1 0-59 47-107 106-107 54 0 99 40 105 92h236c7-52 51-92 105-92 58-1 106 47 107 105 0 1 0 1 0 2 0 58-47 106-106 106-50 1-92-34-104-80h-240c-11 44-50 77-97 80l-14 38h573z" horiz-adv-x="962" />
<glyph glyph-name="compose" unicode="&#xe845;" d="m837 433v-507c0-34-28-62-62-62h-712c-34 0-62 28-62 62v702c0 34 28 62 62 62h479l-67-69h-410v-688h708v435l64 65z m-435-339l444 453-175 171-444-453 175-171z m-31-32l-236-66 61 238 175-172z m570 677c26-26 26-68 1-94l-19-19c-25-26-46-48-46-48l-175 172c0 0 21 21 46 47l19 19c25 26 68 27 94 1l80-78z" horiz-adv-x="962" />
<glyph glyph-name="chevron-arrow" unicode="&#xe846;" d="m297-148l-117 119 368 381-368 376 117 120 485-496-485-500z" horiz-adv-x="962" />
<glyph glyph-name="wifi" unicode="&#xe847;" d="m481 137c-31 0-61-11-85-31-1-1-2-3-2-5 0-2 1-3 2-5l80-80c1-1 3-2 5-2 1 0 3 1 4 2l81 80c1 2 2 3 2 5 0 2-1 4-3 5-23 20-53 31-84 31z m473 357c-127 124-295 192-473 192-178 0-346-68-474-192-1-1-2-3-2-4 0-2 1-4 2-5l57-57c3-2 7-2 9 0 110 106 255 164 408 164 153 0 298-58 407-164 2-1 3-2 5-2 1 0 3 1 4 2l57 57c2 1 2 3 2 5 0 1 0 3-2 4z m-473-174c-80 0-156-30-215-85-1-1-2-3-2-4 0-2 1-4 2-5l57-57c3-2 7-2 9 0 41 37 93 58 149 58 55 0 108-21 148-58 2-1 3-2 5-2 1 0 3 1 4 2l57 57c2 1 2 3 2 5 0 1 0 3-2 4-58 55-134 85-214 85z m0 183c-129 0-251-49-344-138-1-1-2-3-2-5 0-2 0-3 2-4l57-57c1-2 3-2 4-2 2 0 3 0 5 1 75 72 174 112 278 112 104 0 203-40 278-112 2-2 6-2 9 1l57 57c1 1 2 2 2 4 0 2-1 4-2 5-93 89-215 138-344 138z" horiz-adv-x="962" />
<glyph glyph-name="facility" unicode="&#xe848;" d="m946 244l-259 95c-5 2-11 2-16 0l-227-83v369c0 9-5 18-14 22l-198 94c-6 3-14 3-20 0l-199-94c-8-4-13-13-13-22v-645c0-13 10-24 24-24h396 518c13 0 24 11 24 24v242c0 10-6 19-16 22z m-751-239h-92v130c0 25 20 46 46 46 25 0 46-21 46-46v-130z m0 264h-92v92h92v-92z m0 194h-92v92h92v-92z m146-388h-92v92h92v-92z m0 194h-92v92h92v-92z m0 194h-92v92h92v-92z m250-458h-92v130c0 25 21 46 46 46 26 0 46-21 46-46v-130z m147 70h-92v92h92v-92z m146 0h-92v92h92v-92z" horiz-adv-x="962" />
<glyph glyph-name="camera-photo" unicode="&#xe849;" d="m483 413c-71 0-129-57-129-128s58-129 129-129c71 0 128 58 128 129s-57 128-128 128m442 141h-250v113c0 19-16 35-36 35h-317c-19 0-35-16-35-35v-113h-250c-20 0-36-16-36-36v-485c0-19 16-35 36-35h888c19 0 35 16 35 35v485c0 20-16 36-35 36m-442-497c-126 0-228 102-228 228 0 125 102 227 228 227 125 0 227-102 227-227 0-126-102-228-227-228" horiz-adv-x="962" />
<glyph glyph-name="piggybank" unicode="&#xe84a;" d="m427 598c0 13 11 21 23 23v-45c-12 5-23 7-23 22m36-56c12-4 26-9 26-23 0-15-12-23-26-26v49z m-48-30l-23-23c15-16 36-23 58-22v-18h13v18c32 3 57 21 57 54 0 34-28 43-56 51l-1 0v49c12 0 23-5 31-13l20 23c-13 11-32 17-48 17h-3v17h-13v-17c-28-3-54-22-54-51 0-33 25-43 53-51l1 0v-53c-14 2-27 8-35 19m480-236c-1 0-4-1-8 0-5 7-8 16-9 26-1 10 1 19 5 23 3 4 7 5 12 5 13 0 20-4 20-26 0-6-2-20-20-28m-241 120c-1 0-31 18-83 31 16 15 30 33 40 53 35-12 55-24 57-25l-14-59z m-393-1l-14 60c1 1 21 12 55 23 10-20 24-38 41-53-52-13-82-29-82-30m195 299c77 0 139-63 139-139 0-54-31-100-76-123-20 2-41 4-62 4-22 0-43-2-64-4-45 23-76 69-76 123 0 76 63 139 139 139m492-449c-15 0-29 4-41 10 30 15 33 41 33 49 0 42-24 50-45 50-12 0-23-4-30-12-9-10-13-26-11-43 0-5 1-10 3-15-5 3-11 6-17 9-10 101-95 186-215 229 2 10 3 22 3 33 0 95-77 172-172 172-95 0-172-77-172-172 0-12 1-23 3-34-33-11-63-26-90-44l-97 69 27-129c-8-10-16-20-22-30-1-1-3-2-4-5-17-26-42-33-59-35h-19c0 0-21-28-21-93 0-69 39-104 39-104h71c20-28 46-53 78-75v-102h82l24 50c48-16 103-25 160-25 57 0 112 9 161 25l23-50h83v102c70 48 114 116 118 190 11-5 22-10 32-12 16-20 43-32 75-32 7 0 13 5 13 12 0 7-6 12-13 12" horiz-adv-x="962" />
<glyph glyph-name="alert" unicode="&#xe84b;" d="m961-38c0-17-14-31-31-31 0 0-1 0-1 0h-898c-10 0-21 6-26 15-6 10-6 21 0 31l449 778c11 19 42 19 53 0l445-772c5-6 9-13 9-21z m-558 102c0-42 35-76 77-76 43 0 77 34 77 76 0 43-34 78-77 78-42 0-77-35-77-78z m140 474h-125v-338h125v338z" horiz-adv-x="962" />
<glyph glyph-name="reply" unicode="&#xe84c;" d="m430 748l-430-319 425-315v204c0 0 117 21 226-23 108-45 253-124 300-309l8 15c0 0-14 277-153 411-152 146-376 136-376 136v200z" horiz-adv-x="962" />
<glyph glyph-name="mouse" unicode="&#xe84d;" d="m551 130q28-80-17-157t-139-111q-94-28-175 9t-103 117l-106 384q-20 68 6 134t84 106l-96 186q-14 34 14 48 30 18 48-14l98-192q80 22 154-16t102-116z m-324 274q28 10 40 36t4 54q-10 28-35 41t-53 5q-28-10-40-36t-4-54q10-28 35-41t53-5z" horiz-adv-x="561" />
<glyph glyph-name="cancel" unicode="&#xe84e;" d="m654 349l346-346-154-154-346 346-346-346-154 154 346 346-346 346 154 154 346-346 346 346 154-154z" horiz-adv-x="1000" />
<glyph glyph-name="info-circled" unicode="&#xe84f;" d="m571 82v89q0 8-5 13t-12 5h-54v286q0 8-5 13t-13 5h-178q-8 0-13-5t-5-13v-89q0-8 5-13t13-5h53v-179h-53q-8 0-13-5t-5-13v-89q0-8 5-13t13-5h250q7 0 12 5t5 13z m-71 500v89q0 8-5 13t-13 5h-107q-8 0-13-5t-5-13v-89q0-8 5-13t13-5h107q8 0 13 5t5 13z m357-232q0-117-57-215t-156-156-215-58-216 58-155 156-58 215 58 215 155 156 216 58 215-58 156-156 57-215z" horiz-adv-x="857.1" />
<glyph glyph-name="spin5" unicode="&#xe850;" d="m462 850c-6 0-11-5-11-11l0-183 0 0c0-6 5-11 11-11l69 0c1 0 1 0 1 0 7 0 12 5 12 11l0 183 0 0c0 6-5 11-12 11l-69 0c0 0 0 0-1 0z m250-47c-4 1-8-2-10-5l-91-158 0 0c-4-6-2-13 4-16l60-35c0 0 0 0 0 0 6-3 13-1 16 4l91 158c3 6 2 13-4 16l-61 35c-1 1-3 1-5 1z m-428-2c-2 0-4-1-6-2l-61-35c-5-3-7-10-4-16l91-157c0 0 0 0 0 0 3-6 10-8 16-5l61 35c5 4 7 11 4 16l-91 157c0 1 0 1 0 1-2 4-6 6-10 6z m620-163c-2 0-4 0-6-1l-157-91c0 0 0 0 0 0-6-3-8-10-5-16l35-61c4-5 11-7 16-4l157 91c1 0 1 0 1 0 6 3 7 10 4 16l-35 61c-2 3-6 5-10 5z m-810-4c-5 0-9-2-11-6l-35-61c-3-5-1-12 4-15l158-92 0 0c6-3 13-1 16 5l35 60c0 0 0 0 0 0 3 6 1 13-4 16l-158 91c-2 1-4 2-5 2z m712-235l0 0c-6 0-11-5-11-11l0-69c0-1 0-1 0-1 0-7 5-12 11-12l183 0 0 0c6 0 11 5 11 12l0 69c0 0 0 0 0 1 0 6-5 11-11 11l-183 0z m-794-5l0 0c-7 0-12-5-12-12l0-69c0 0 0 0 0-1 0-6 5-11 12-11l182 0 0 0c6 0 11 5 11 11l0 69c0 1 0 1 0 1 0 7-5 12-11 12l-182 0z m772-153c-4 0-8-2-10-6l-34-60c-1 0-1 0-1 0-3-6-1-13 4-16l158-91c6-3 13-2 16 4l35 61c3 5 1 12-4 15l-158 91 0 0c-2 1-4 2-6 2z m-566-5c-1 0-3 0-5-1l-157-91c0 0-1 0-1 0-5-3-7-11-4-16l35-61c3-5 10-7 16-4l157 91c0 0 0 0 0 0 6 3 8 10 5 16l-35 61c-3 3-7 5-11 5z m468-121c-2 0-4 0-6-1l-61-35c-5-4-7-11-4-16l91-157c0-1 0-1 0-1 3-6 11-7 16-4l61 35c5 3 7 10 4 16l-91 157c0 0 0 0 0 0-2 4-6 6-10 6z m-367-3c-4 1-8-2-10-5l-91-158c-3-6-1-13 4-16l61-35c5-3 12-1 15 4l92 158 0 0c3 6 1 13-5 16l-60 34c0 1 0 1 0 1-2 1-4 1-6 1z m149-57c-7 0-12-5-12-11l0-183 0 0c0-6 5-11 12-11l69 0c0 0 0 0 1 0 6 0 11 5 11 11l0 183 0 0c0 6-5 11-11 11l-69 0c-1 0-1 0-1 0z" horiz-adv-x="1000" />
<glyph glyph-name="menu" unicode="&#xe851;" d="m857 100v-71q0-15-10-25t-26-11h-785q-15 0-25 11t-11 25v71q0 15 11 25t25 11h785q15 0 26-11t10-25z m0 286v-72q0-14-10-25t-26-10h-785q-15 0-25 10t-11 25v72q0 14 11 25t25 10h785q15 0 26-10t10-25z m0 285v-71q0-15-10-25t-26-11h-785q-15 0-25 11t-11 25v71q0 15 11 26t25 10h785q15 0 26-10t10-26z" horiz-adv-x="857.1" />
<glyph glyph-name="schedule-appt" unicode="&#xe852;" d="m705 818c-95-10-174-77-201-168-20-70-6-145 38-204 9-12 28-32 40-42 32-25 67-42 110-49 11-2 16-2 37-2 27 0 39 1 62 8 64 17 118 62 148 122 16 32 23 65 23 103 0 37-7 70-23 103-30 60-87 106-153 123-22 6-59 8-81 6z m50-187l0-38 38 0 37 0 0-18 0-19-37 0-38 0 0-37 0-37-18 0-19 0 0 37 0 37-37 0-37 0 0 19 0 18 37 0 37 0 0 38 0 37 19 0 18 0 0-37z m-501 96c-29-6-55-27-64-53-5-12-6-20-6-45l0-23-68 0c-67 0-67 0-73-3-10-4-17-13-19-25-1-5-1-101-1-329l1-323 2-7c6-19 15-30 28-33 5-2 39-2 379-2 410 0 379-1 390 6 12 6 25 22 30 37 1 5 2 15 2 225 0 121 0 220 0 221-1 1-6-1-35-14l-17-7 0-209 0-208-365 0-366 0 0 248 0 247 231 0c126 0 230 0 230 1 0 0-2 4-5 9-33 56-46 99-44 149l1 17-63 0-63 0 0 19c0 11 0 24-1 29-4 37-34 67-72 74-9 1-24 1-32-1z m37-55c6-3 11-8 14-14l3-4 0-62c0-70 0-68-8-77-2-3-6-6-10-8-5-2-7-2-13-2-7 0-9 0-14 2-7 4-11 7-14 14l-3 6 0 63c0 70 0 66 8 75 6 7 13 10 23 10 7 0 9 0 14-3z m-8-308c-44-6-75-30-87-67-2-8-5-20-5-24 0-3 0-3 5-3 5-1 29-3 51-4l3 0 2 6c6 25 25 39 50 39 25 0 44-15 48-36 2-12-1-23-9-36-7-11-11-15-88-89l-69-66 0-31 0-31 119 0 119 0 0 25 0 24-83 0-83 1 53 49c60 57 73 70 82 83 16 23 23 49 20 75-5 45-31 73-79 83-11 2-37 3-49 2z m342-7c-1-1-13-1-34-1l-34 0-46-71c-45-70-56-89-62-106-10-26-11-56-5-81 10-37 36-65 74-75 15-5 26-6 46-6 16 1 20 1 30 4 22 6 39 15 54 29 17 18 27 38 31 64 8 56-23 108-72 123-17 4-41 5-54 1-6-2-6-2-6-1 0 1 45 70 71 109 5 7 8 12 8 12-1 0-1 0-1-1z m-49-164c20-5 38-22 44-42 3-9 3-24 1-33-6-22-25-40-46-44-21-5-41 1-56 16-13 13-18 26-18 44 0 17 6 31 19 43 7 7 18 13 27 16 8 1 21 1 29 0z" horiz-adv-x="962" />
<glyph glyph-name="calendar" unicode="&#xe853;" d="m278 848c-36-6-66-30-78-64-4-12-5-23-5-44l0-20-75 0-75 0-7-3c-16-5-29-16-36-30l-2-5 0-379 0-379 3-6c8-16 24-28 44-31 4-1 141-1 436-1l430 0 8 3c21 7 35 24 38 47 1 4 1 121 1 372l0 365-3 7c-3 9-6 14-13 21-7 8-14 12-24 16l-7 3-76 0-75 0 0 23c-1 16-1 26-2 30-18 74-109 101-162 48-13-13-21-27-26-45-2-8-2-12-3-33l0-23-90 0-91 0 0 23c-1 23-2 30-6 41-10 31-37 55-69 63-8 1-27 2-35 1z m26-63c7-3 15-10 19-18l3-6 0-72 0-72-3-6c-4-8-9-13-17-17-6-3-7-3-15-3-7 0-9 0-14 2-7 4-14 11-17 18-2 5-2 5-2 78l0 73 2 5c4 9 13 16 22 19 5 2 16 1 22-1z m377-1c7-4 13-10 16-17l3-5 0-73c0-73 0-73-3-78-3-7-10-14-17-17-5-3-7-3-14-3-8 0-9 0-15 3-8 4-13 9-17 17l-2 6 0 72 0 73 2 5c4 7 12 15 19 18 8 3 21 2 28-1z m-513-351l0-81-54 0-55 0 0 81 0 81 55 0 54 0 0-81z m197 0l0-81-81 0-81 0 0 81 0 81 81 0 81 0 0-81z m197 0l0-81-81 0-81 0 0 81 0 81 81 0 81 0 0-81z m197 0l0-81-81 0-81 0 0 81 0 81 81 0 81 0 0-81z m139 0l0-81-51 0-52 0 0 81 0 81 52 0 51 0 0-81z m-730-205l0-89-54 0-55 0 0 89 0 88 55 0 54 0 0-88z m198 0l0-89-81 0-81 0 0 89 0 88 81 0 81 0 0-88z m197 0l0-89-80 0-81 0 0 89 0 88 81 0 80 0 0-88z m198 0l0-89-81 0-81 0 0 89 0 88 81 0 81 0 0-88z m137 0l0-89-51 0-52 0 0 89 0 88 52 0 51 0 0-88z m-730-202l0-78-54 0-55 0 0 78 0 78 55 0 54 0 0-78z m197 0l0-78-81 0-81 0 0 78 0 78 81 0 81 0 0-78z m197 0l0-78-81 0-81 0 0 78 0 78 81 0 81 0 0-78z m197 0l0-78-81 0-81 0 0 78 0 78 81 0 81 0 0-78z m139 0l0-78-51 0-52 0 0 78 0 78 52 0 51 0 0-78z" horiz-adv-x="962" />
<glyph glyph-name="circle-minus" unicode="&#xe854;" d="m454 830c-2 0-10 0-17-1-8-1-20-2-27-3-144-21-270-106-345-233-9-14-25-48-31-64-29-73-40-156-31-233 8-64 29-129 61-184 22-38 47-69 79-102 31-30 62-53 98-74 14-8 46-24 61-30 114-45 240-45 355 0 14 6 46 22 61 30 54 31 105 76 143 127 56 73 89 161 96 254 1 17 1 52 0 69-4 49-15 98-32 143-7 16-23 50-32 64-33 56-76 104-126 142-71 53-154 85-244 94-11 1-61 2-69 1z m237-478l0-50-212 0-212 0 0 50 0 49 212 0 212 0 0-49z" horiz-adv-x="962" />
<glyph glyph-name="minus" unicode="&#xe855;" d="m786 439v-107q0-22-16-38t-38-15h-678q-23 0-38 15t-16 38v107q0 23 16 38t38 16h678q22 0 38-16t16-38z" horiz-adv-x="785.7" />
<glyph glyph-name="chevron-arrow-left" unicode="&#xe856;" d="m180 349l485-496 117 121-369 376 369 380-117 120-485-501z" horiz-adv-x="962" />
</font>
</defs>
</svg>
